<?xml version="1.0"?>
<svg xmlns="http://www.w3.org/2000/svg" class="badgeicon" alt="element.io matrix icon" width="54" height="54" viewBox="0 0 54 54" fill="#ffffff">
	<path d="M22.681 0C20.8916 0 19.441 1.4506 19.441 3.24C19.441 5.0294 20.8916 6.48 22.681 6.48C31.0316 6.48 37.801 13.2494 37.801 21.6C37.801 23.3894 39.2516 24.84 41.041 24.84C42.8304 24.84 44.281 23.3894 44.281 21.6C44.281 9.6706 34.61 0 22.681 0Z"/>
	<path d="M54 22.68C54 20.8906 52.5494 19.44 50.76 19.44C48.9706 19.44 47.52 20.8906 47.52 22.68C47.52 31.0306 40.7505 37.8 32.4 37.8C30.6106 37.8 29.16 39.2506 29.16 41.04C29.16 42.8294 30.6106 44.28 32.4 44.28C44.3294 44.28 54 34.609 54 22.68Z"/>
	<path d="M31.319 54C33.1084 54 34.559 52.5494 34.559 50.76C34.559 48.9706 33.1084 47.52 31.319 47.52C22.9685 47.52 16.199 40.7505 16.199 32.4C16.199 30.6106 14.7484 29.16 12.959 29.16C11.1696 29.16 9.719 30.6106 9.719 32.4C9.719 44.3294 19.39 54 31.319 54Z"/>
	<path d="M3.24 34.56C1.4506 34.56 0 33.1094 0 31.32C0 19.391 9.6707 9.72 21.6 9.72C23.3894 9.72 24.84 11.1706 24.84 12.96C24.84 14.7494 23.3894 16.2 21.6 16.2C13.2495 16.2 6.48 22.9694 6.48 31.32C6.48 33.1094 5.0294 34.56 3.24 34.56Z"/>
</svg>
